<svg width="180" height="70" viewBox="0 0 180 70" fill="none" xmlns="http://www.w3.org/2000/svg">
<g clip-path="url(#clip0_30_74)">
<path d="M90.5 8.66675C107.966 8.66675 122.125 16.8751 122.125 27.0001V35.3334H113.5V27.0001C113.5 23.536 111.174 20.208 107.016 17.7206C102.857 15.2332 97.1913 13.7817 91.2187 13.6734L90.5 13.6667C84.5245 13.6668 78.7836 15.015 74.4928 17.4259C70.2021 19.8368 67.6982 23.1211 67.5115 26.5834L67.5 27.0001V35.3334H58.875V27.0001C58.875 16.8751 73.0344 8.66675 90.5 8.66675ZM90.5 15.3334C95.8375 15.3334 100.956 16.5626 104.731 18.7505C108.505 20.9384 110.625 23.9059 110.625 27.0001V35.3334H102V27.0001C102 25.2897 100.866 23.6447 98.8325 22.4054C96.7991 21.1661 94.0218 20.4273 91.075 20.3417L90.5 20.3334C87.5496 20.3334 84.712 20.9908 82.5742 22.1696C80.4364 23.3484 79.1619 24.9585 79.0144 26.6667L79 27.0001V35.3334H70.375V27.0001C70.375 23.9059 72.4953 20.9384 76.2695 18.7505C80.0436 16.5626 85.1625 15.3334 90.5 15.3334ZM90.5 22.0001C92.7875 22.0001 94.9813 22.5269 96.5988 23.4645C98.2163 24.4022 99.125 25.674 99.125 27.0001V35.3334H81.875V27.0001C81.875 25.674 82.7837 24.4022 84.4012 23.4645C86.0187 22.5269 88.2125 22.0001 90.5 22.0001Z" fill="#AAAAAA"/>
</g>
<path d="M49.5137 63V48.7812H52.8047C53.3581 48.7878 53.8789 48.8464 54.3672 48.957C54.862 49.0612 55.3177 49.2109 55.7344 49.4062C56.3138 49.6732 56.8249 50.0247 57.2676 50.4609C57.7168 50.8906 58.0749 51.3887 58.3418 51.9551C58.5827 52.4368 58.765 52.9642 58.8887 53.5371C59.0189 54.11 59.0872 54.722 59.0938 55.373V56.418C59.0938 57.043 59.0319 57.6354 58.9082 58.1953C58.791 58.7552 58.6185 59.2695 58.3906 59.7383C58.1562 60.2266 57.86 60.6693 57.502 61.0664C57.1439 61.4635 56.7435 61.8021 56.3008 62.082C55.832 62.375 55.3014 62.5996 54.709 62.7559C54.123 62.9121 53.4883 62.9935 52.8047 63H49.5137ZM51.3496 50.2656V61.5254H52.8047C53.3255 61.5189 53.7975 61.4538 54.2207 61.3301C54.6504 61.2064 55.0312 61.0306 55.3633 60.8027C55.7148 60.5684 56.0176 60.2819 56.2715 59.9434C56.5319 59.5983 56.737 59.2142 56.8867 58.791C57.0169 58.446 57.1146 58.0749 57.1797 57.6777C57.2448 57.2741 57.2806 56.8542 57.2871 56.418V55.3535C57.2806 54.9108 57.2415 54.4876 57.1699 54.084C57.1048 53.6738 57.0039 53.293 56.8672 52.9414C56.6914 52.4857 56.4538 52.0755 56.1543 51.7109C55.8613 51.3398 55.5 51.0404 55.0703 50.8125C54.7643 50.6432 54.4225 50.513 54.0449 50.4219C53.6673 50.3242 53.2539 50.2721 52.8047 50.2656H51.3496ZM61.2031 57.6191C61.2031 56.8574 61.3138 56.151 61.5352 55.5C61.7565 54.8424 62.0755 54.2728 62.4922 53.791C62.9023 53.3092 63.4036 52.9316 63.9961 52.6582C64.5885 52.3783 65.2559 52.2383 65.998 52.2383C66.7467 52.2383 67.4173 52.3783 68.0098 52.6582C68.6087 52.9316 69.1165 53.3092 69.5332 53.791C69.9434 54.2728 70.2591 54.8424 70.4805 55.5C70.7018 56.151 70.8125 56.8574 70.8125 57.6191V57.834C70.8125 58.5957 70.7018 59.3021 70.4805 59.9531C70.2591 60.6042 69.9434 61.1706 69.5332 61.6523C69.1165 62.1341 68.612 62.5117 68.0195 62.7852C67.4271 63.0586 66.7598 63.1953 66.0176 63.1953C65.2689 63.1953 64.5951 63.0586 63.9961 62.7852C63.4036 62.5117 62.9023 62.1341 62.4922 61.6523C62.0755 61.1706 61.7565 60.6042 61.5352 59.9531C61.3138 59.3021 61.2031 58.5957 61.2031 57.834V57.6191ZM63.0098 57.834C63.0098 58.3548 63.0716 58.8529 63.1953 59.3281C63.319 59.7969 63.5078 60.2103 63.7617 60.5684C64.0091 60.9264 64.3216 61.2096 64.6992 61.418C65.0768 61.6263 65.5163 61.7305 66.0176 61.7305C66.5124 61.7305 66.9453 61.6263 67.3164 61.418C67.694 61.2096 68.0098 60.9264 68.2637 60.5684C68.5111 60.2103 68.6966 59.7969 68.8203 59.3281C68.944 58.8529 69.0059 58.3548 69.0059 57.834V57.6191C69.0059 57.1048 68.9408 56.6133 68.8105 56.1445C68.6868 55.6693 68.5013 55.2526 68.2539 54.8945C68 54.5365 67.6842 54.2533 67.3066 54.0449C66.9355 53.8301 66.4993 53.7227 65.998 53.7227C65.4967 53.7227 65.0605 53.8301 64.6895 54.0449C64.3184 54.2533 64.0091 54.5365 63.7617 54.8945C63.5078 55.2526 63.319 55.6693 63.1953 56.1445C63.0716 56.6133 63.0098 57.1048 63.0098 57.6191V57.834ZM74.5527 52.4336L74.6016 53.4297C74.8164 53.0586 75.0964 52.7689 75.4414 52.5605C75.793 52.3522 76.2161 52.2448 76.7109 52.2383C76.9909 52.2383 77.2415 52.2708 77.4629 52.3359C77.6908 52.3945 77.8893 52.4824 78.0586 52.5996C78.1823 52.6908 78.293 52.8014 78.3906 52.9316C78.4948 53.0618 78.5827 53.2083 78.6543 53.3711C78.7454 53.2214 78.8529 53.0814 78.9766 52.9512C79.1003 52.821 79.2337 52.707 79.377 52.6094C79.5592 52.4987 79.7611 52.4108 79.9824 52.3457C80.2103 52.2806 80.4577 52.2448 80.7246 52.2383C81.0892 52.2383 81.418 52.2936 81.7109 52.4043C82.0039 52.5085 82.2513 52.6647 82.4531 52.873C82.6745 53.1074 82.8438 53.4134 82.9609 53.791C83.0781 54.1621 83.1367 54.6016 83.1367 55.1094V63H81.418V55.0898C81.418 54.8685 81.3919 54.6732 81.3398 54.5039C81.2878 54.3346 81.2129 54.1947 81.1152 54.084C81.0111 53.9798 80.8809 53.9017 80.7246 53.8496C80.5749 53.7975 80.3991 53.7715 80.1973 53.7715C79.9824 53.7715 79.7969 53.8008 79.6406 53.8594C79.4844 53.918 79.3542 53.9961 79.25 54.0938C79.1458 54.1979 79.0645 54.3184 79.0059 54.4551C78.9473 54.5853 78.9082 54.7318 78.8887 54.8945C78.8887 54.9271 78.8887 54.9596 78.8887 54.9922C78.8887 55.0182 78.8887 55.0508 78.8887 55.0898V63H77.1699V55.0801C77.1699 54.8587 77.1439 54.6634 77.0918 54.4941C77.0462 54.3249 76.9714 54.1849 76.8672 54.0742C76.7695 53.9701 76.6458 53.8952 76.4961 53.8496C76.3529 53.7975 76.1836 53.7715 75.9883 53.7715C75.7734 53.7715 75.5846 53.7975 75.4219 53.8496C75.2656 53.8952 75.1322 53.9635 75.0215 54.0547C74.9368 54.1263 74.862 54.2077 74.7969 54.2988C74.7383 54.39 74.6895 54.4876 74.6504 54.5918V63H72.9316V52.4336H74.5527ZM90.4023 63.1953C89.6602 63.1953 88.9766 63.0684 88.3516 62.8145C87.7331 62.5605 87.2025 62.2057 86.7598 61.75C86.3171 61.2943 85.972 60.7539 85.7246 60.1289C85.4772 59.5039 85.3535 58.8236 85.3535 58.0879V57.6777C85.3535 56.8249 85.4902 56.0632 85.7637 55.3926C86.0371 54.7155 86.4017 54.1426 86.8574 53.6738C87.3066 53.2116 87.8177 52.8568 88.3906 52.6094C88.9701 52.362 89.5625 52.2383 90.168 52.2383C90.9297 52.2383 91.5938 52.3717 92.1602 52.6387C92.7331 52.8991 93.2083 53.2604 93.5859 53.7227C93.9635 54.1914 94.2435 54.7415 94.4258 55.373C94.6146 56.0046 94.709 56.6882 94.709 57.4238V58.2344H87.1602V58.3027C87.2057 58.8171 87.3066 59.2695 87.4629 59.6602C87.6257 60.0508 87.847 60.3958 88.127 60.6953C88.4134 61.0143 88.7585 61.265 89.1621 61.4473C89.5658 61.6296 90.0117 61.7207 90.5 61.7207C91.1445 61.7207 91.7174 61.5905 92.2188 61.3301C92.7201 61.0697 93.1367 60.7246 93.4688 60.2949L94.5723 61.1543C94.2207 61.6882 93.6934 62.1634 92.9902 62.5801C92.2936 62.9902 91.431 63.1953 90.4023 63.1953ZM90.168 53.7227C89.8034 53.7227 89.4583 53.791 89.1328 53.9277C88.8073 54.0579 88.5143 54.25 88.2539 54.5039C87.9935 54.7643 87.7721 55.0833 87.5898 55.4609C87.4141 55.832 87.2904 56.2617 87.2188 56.75H92.9023V56.6621C92.9023 56.3366 92.8405 55.9883 92.7168 55.6172C92.5931 55.2396 92.4206 54.9141 92.1992 54.6406C91.9779 54.3672 91.6979 54.1458 91.3594 53.9766C91.0273 53.8073 90.6302 53.7227 90.168 53.7227ZM97.7461 63V52.4336H99.3672L99.4941 53.9961C99.6504 53.7747 99.8197 53.5729 100.002 53.3906C100.191 53.2018 100.389 53.0391 100.598 52.9023C100.91 52.694 101.249 52.5345 101.613 52.4238C101.984 52.3066 102.375 52.2448 102.785 52.2383C103.339 52.2383 103.84 52.3164 104.289 52.4727C104.745 52.6289 105.132 52.873 105.451 53.2051C105.77 53.5371 106.014 53.9603 106.184 54.4746C106.359 54.9824 106.447 55.5879 106.447 56.291V63H104.641V56.3301C104.641 55.8613 104.589 55.4642 104.484 55.1387C104.38 54.8132 104.227 54.5495 104.025 54.3477C103.817 54.1458 103.563 53.9993 103.264 53.9082C102.971 53.8171 102.632 53.7715 102.248 53.7715C101.916 53.7715 101.607 53.8203 101.32 53.918C101.034 54.0091 100.77 54.1361 100.529 54.2988C100.334 54.4421 100.152 54.6081 99.9824 54.7969C99.8197 54.9857 99.6764 55.194 99.5527 55.4219V63H97.7461ZM109.416 57.6289C109.416 56.8411 109.514 56.1185 109.709 55.4609C109.911 54.7969 110.197 54.2272 110.568 53.752C110.933 53.2767 111.376 52.9056 111.896 52.6387C112.417 52.3717 113 52.2383 113.645 52.2383C114.276 52.2383 114.826 52.3457 115.295 52.5605C115.77 52.7689 116.18 53.0749 116.525 53.4785V48H118.332V63H116.672L116.594 61.8867C116.242 62.3164 115.822 62.6419 115.334 62.8633C114.846 63.0846 114.276 63.1953 113.625 63.1953C112.987 63.1953 112.408 63.0586 111.887 62.7852C111.372 62.5117 110.933 62.1341 110.568 61.6523C110.204 61.1706 109.921 60.6042 109.719 59.9531C109.517 59.2956 109.416 58.5892 109.416 57.834V57.6289ZM111.223 57.834C111.223 58.3483 111.278 58.8366 111.389 59.2988C111.499 59.7611 111.672 60.168 111.906 60.5195C112.134 60.8711 112.427 61.151 112.785 61.3594C113.143 61.5612 113.573 61.6621 114.074 61.6621C114.68 61.6621 115.181 61.5254 115.578 61.252C115.975 60.9785 116.291 60.6107 116.525 60.1484V55.2461C116.291 54.8164 115.975 54.4648 115.578 54.1914C115.181 53.9115 114.686 53.7715 114.094 53.7715C113.586 53.7715 113.15 53.8757 112.785 54.084C112.427 54.2923 112.134 54.5723 111.906 54.9238C111.672 55.2819 111.499 55.6953 111.389 56.1641C111.278 56.6263 111.223 57.1146 111.223 57.6289V57.834ZM122.053 52.4336H127.453V61.4375H130.9V63H122.053V61.4375H125.646V54.0059H122.053V52.4336ZM125.412 49.6602C125.412 49.5039 125.435 49.3574 125.48 49.2207C125.533 49.084 125.611 48.9668 125.715 48.8691C125.799 48.7845 125.907 48.7194 126.037 48.6738C126.174 48.6217 126.327 48.5957 126.496 48.5957C126.665 48.5957 126.815 48.6217 126.945 48.6738C127.076 48.7194 127.183 48.7845 127.268 48.8691C127.372 48.9603 127.45 49.0742 127.502 49.2109C127.554 49.3477 127.58 49.4974 127.58 49.6602C127.58 49.9531 127.489 50.1973 127.307 50.3926C127.124 50.5879 126.854 50.6855 126.496 50.6855C126.132 50.6855 125.858 50.5879 125.676 50.3926C125.5 50.1973 125.412 49.9531 125.412 49.6602Z" fill="white" fill-opacity="0.8"/>
<defs>
<clipPath id="clip0_30_74">
<rect width="69" height="40" fill="white" transform="translate(56 2)"/>
</clipPath>
</defs>
</svg>
