<svg width="180" height="70" viewBox="0 0 180 70" fill="none" xmlns="http://www.w3.org/2000/svg">
<path d="M30.625 14.875C28.8944 14.875 27.2027 15.3882 25.7638 16.3496C24.3248 17.3111 23.2033 18.6777 22.5411 20.2765C21.8788 21.8754 21.7055 23.6347 22.0431 25.332C22.3808 27.0294 23.2141 28.5885 24.4378 29.8122C25.6615 31.0359 27.2206 31.8693 28.918 32.2069C30.6153 32.5445 32.3746 32.3712 33.9735 31.709C35.5723 31.0467 36.9389 29.9252 37.9004 28.4862C38.8618 27.0473 39.375 25.3556 39.375 23.625C39.3724 21.3052 38.4497 19.0811 36.8093 17.4407C35.1689 15.8003 32.9448 14.8776 30.625 14.875ZM30.625 30.625C29.2405 30.625 27.8872 30.2145 26.736 29.4453C25.5849 28.6761 24.6877 27.5829 24.1578 26.3038C23.628 25.0247 23.4894 23.6172 23.7595 22.2594C24.0296 20.9015 24.6963 19.6542 25.6753 18.6753C26.6542 17.6963 27.9015 17.0296 29.2594 16.7595C30.6172 16.4894 32.0247 16.628 33.3038 17.1578C34.5829 17.6877 35.6761 18.5849 36.4453 19.736C37.2145 20.8872 37.625 22.2405 37.625 23.625C37.6229 25.4809 36.8848 27.2601 35.5724 28.5724C34.2601 29.8848 32.4809 30.6229 30.625 30.625ZM53.375 32.375C55.1056 32.375 56.7973 31.8618 58.2362 30.9004C59.6752 29.9389 60.7967 28.5723 61.459 26.9735C62.1212 25.3746 62.2945 23.6153 61.9569 21.918C61.6193 20.2206 60.7859 18.6615 59.5622 17.4378C58.3385 16.2141 56.7794 15.3808 55.082 15.0431C53.3847 14.7055 51.6254 14.8788 50.0265 15.5411C48.4277 16.2033 47.0611 17.3248 46.0996 18.7638C45.1382 20.2027 44.625 21.8944 44.625 23.625C44.6276 25.9448 45.5503 28.1689 47.1907 29.8093C48.8311 31.4497 51.0552 32.3724 53.375 32.375ZM53.375 16.625C54.7595 16.625 56.1129 17.0355 57.264 17.8047C58.4151 18.5739 59.3124 19.6671 59.8422 20.9462C60.372 22.2253 60.5106 23.6328 60.2405 24.9906C59.9704 26.3485 59.3037 27.5958 58.3248 28.5748C57.3458 29.5537 56.0985 30.2204 54.7406 30.4905C53.3828 30.7606 51.9753 30.622 50.6962 30.0922C49.4171 29.5623 48.3239 28.6651 47.5547 27.514C46.7855 26.3629 46.375 25.0095 46.375 23.625C46.3771 21.7691 47.1153 19.9899 48.4276 18.6776C49.7399 17.3653 51.5191 16.6271 53.375 16.625ZM30.625 37.625C28.8944 37.625 27.2027 38.1382 25.7638 39.0996C24.3248 40.0611 23.2033 41.4277 22.5411 43.0265C21.8788 44.6254 21.7055 46.3847 22.0431 48.082C22.3808 49.7794 23.2141 51.3385 24.4378 52.5622C25.6615 53.7859 27.2206 54.6193 28.918 54.9569C30.6153 55.2945 32.3746 55.1212 33.9735 54.459C35.5723 53.7967 36.9389 52.6752 37.9004 51.2362C38.8618 49.7973 39.375 48.1056 39.375 46.375C39.3724 44.0552 38.4497 41.8311 36.8093 40.1907C35.1689 38.5503 32.9448 37.6276 30.625 37.625ZM30.625 53.375C29.2405 53.375 27.8872 52.9645 26.736 52.1953C25.5849 51.4261 24.6877 50.3329 24.1578 49.0538C23.628 47.7747 23.4894 46.3672 23.7595 45.0094C24.0296 43.6515 24.6963 42.4042 25.6753 41.4253C26.6542 40.4463 27.9015 39.7796 29.2594 39.5095C30.6172 39.2394 32.0247 39.378 33.3038 39.9078C34.5829 40.4377 35.6761 41.3349 36.4453 42.486C37.2145 43.6372 37.625 44.9905 37.625 46.375C37.6229 48.2309 36.8848 50.0102 35.5724 51.3225C34.2601 52.6348 32.4809 53.3729 30.625 53.375ZM53.375 37.625C51.6444 37.625 49.9527 38.1382 48.5138 39.0996C47.0748 40.0611 45.9533 41.4277 45.2911 43.0265C44.6288 44.6254 44.4555 46.3847 44.7931 48.082C45.1308 49.7794 45.9641 51.3385 47.1878 52.5622C48.4115 53.7859 49.9706 54.6193 51.668 54.9569C53.3653 55.2945 55.1246 55.1212 56.7235 54.459C58.3223 53.7967 59.6889 52.6752 60.6504 51.2362C61.6118 49.7973 62.125 48.1056 62.125 46.375C62.1224 44.0552 61.1997 41.8311 59.5593 40.1907C57.9189 38.5503 55.6948 37.6276 53.375 37.625ZM53.375 53.375C51.9905 53.375 50.6372 52.9645 49.486 52.1953C48.3349 51.4261 47.4377 50.3329 46.9078 49.0538C46.378 47.7747 46.2394 46.3672 46.5095 45.0094C46.7796 43.6515 47.4463 42.4042 48.4253 41.4253C49.4042 40.4463 50.6515 39.7796 52.0094 39.5095C53.3672 39.2394 54.7747 39.378 56.0538 39.9078C57.3329 40.4377 58.4261 41.3349 59.1953 42.486C59.9645 43.6372 60.375 44.9905 60.375 46.375C60.3729 48.2309 59.6348 50.0102 58.3225 51.3225C57.0102 52.6348 55.2309 53.3729 53.375 53.375Z" fill="white" fill-opacity="0.8"/>
<path d="M88.6372 48.92C88.1678 48.92 87.7732 48.7387 87.4532 48.376C87.1545 48.0133 87.0052 47.416 87.0052 46.584C87.0052 46.3067 87.0372 46.008 87.1012 45.688C87.1652 45.3467 87.2825 45.0053 87.4532 44.664C86.3865 42.0187 85.4905 39.448 84.7652 36.952C84.0398 34.456 83.4212 31.8427 82.9092 29.112C82.2265 30.52 81.5758 31.9813 80.9572 33.496C80.3598 34.9893 79.7945 36.4507 79.2612 37.88C78.7278 39.3093 78.2478 40.6427 77.8212 41.88C77.3945 43.1173 77.0212 44.184 76.7012 45.08C76.3598 46.1467 76.0185 46.8613 75.6772 47.224C75.3358 47.608 74.9838 47.8 74.6212 47.8C74.1305 47.8 73.7572 47.6827 73.5012 47.448C73.2665 47.2133 73.1492 46.7973 73.1492 46.2C73.1492 45.752 73.2665 45.0587 73.5012 44.12C73.7358 43.1813 74.0558 42.0933 74.4612 40.856C74.8878 39.6187 75.3678 38.3173 75.9012 36.952C76.4345 35.5867 76.9998 34.2533 77.5972 32.952C78.2158 31.6507 78.8345 30.4773 79.4532 29.432C80.0718 28.3653 80.6585 27.5227 81.2132 26.904C81.7892 26.264 82.3118 25.944 82.7812 25.944C83.2718 25.944 83.6878 26.04 84.0292 26.232C84.3918 26.424 84.7865 26.9253 85.2132 27.736C85.4905 28.2907 85.8105 29.1013 86.1732 30.168C86.5358 31.2133 86.8985 32.3973 87.2612 33.72C87.6238 35.0213 87.9758 36.3653 88.3172 37.752C88.6585 39.1173 88.9572 40.3867 89.2132 41.56C90.0665 37.6133 90.8132 34.1573 91.4532 31.192C92.0932 28.2053 92.5838 25.8693 92.9252 24.184C93.2878 22.4987 93.4798 21.6133 93.5012 21.528C93.6292 20.9733 93.7678 20.632 93.9172 20.504C94.0665 20.376 94.2798 20.312 94.5572 20.312C94.9412 20.312 95.3145 20.472 95.6772 20.792C96.0612 21.0907 96.2532 21.5067 96.2532 22.04C96.2532 22.296 96.1892 22.8827 96.0612 23.8C95.9545 24.7173 95.7838 25.8693 95.5492 27.256C95.3358 28.6213 95.0585 30.1467 94.7172 31.832C94.3758 33.496 93.9812 35.2347 93.5332 37.048C93.0852 38.84 92.5838 40.6213 92.0292 42.392C91.4958 44.1413 90.9092 45.7947 90.2692 47.352C90.0345 47.9493 89.7572 48.3547 89.4372 48.568C89.1385 48.8027 88.8718 48.92 88.6372 48.92ZM102.328 47.16C101.923 47.16 101.56 47.0107 101.24 46.712C100.92 46.392 100.76 45.9013 100.76 45.24C100.76 44.7707 100.824 44.12 100.952 43.288C101.08 42.4347 101.251 41.5067 101.464 40.504C101.677 39.5013 101.901 38.5093 102.136 37.528C102.392 36.5253 102.648 35.6293 102.904 34.84C103.16 34.0507 103.384 33.464 103.576 33.08C103.747 32.7813 103.907 32.5893 104.056 32.504C104.227 32.4187 104.387 32.376 104.536 32.376C104.835 32.376 105.091 32.472 105.304 32.664C105.539 32.856 105.656 33.2293 105.656 33.784C105.656 34.104 105.592 34.6373 105.464 35.384C105.357 36.1093 105.208 36.9627 105.016 37.944C104.845 38.904 104.653 39.896 104.44 40.92C104.248 41.9227 104.056 42.8827 103.864 43.8C103.672 44.7173 103.523 45.4853 103.416 46.104C103.331 46.4453 103.181 46.712 102.968 46.904C102.776 47.0747 102.563 47.16 102.328 47.16ZM105.464 29.464C104.973 29.464 104.504 29.3147 104.056 29.016C103.629 28.7173 103.416 28.2373 103.416 27.576C103.416 27.0213 103.544 26.5733 103.8 26.232C104.077 25.8907 104.397 25.6453 104.76 25.496C105.144 25.3253 105.475 25.24 105.752 25.24C106.029 25.24 106.339 25.304 106.68 25.432C107.043 25.5387 107.352 25.752 107.608 26.072C107.864 26.3707 107.992 26.8187 107.992 27.416C107.992 27.8213 107.853 28.184 107.576 28.504C107.299 28.8027 106.957 29.0373 106.552 29.208C106.168 29.3787 105.805 29.464 105.464 29.464ZM115.141 47.448C114.095 47.448 113.189 47.2133 112.421 46.744C111.674 46.2533 111.098 45.624 110.693 44.856C110.287 44.088 110.085 43.2987 110.085 42.488C110.085 40.7813 110.383 39.224 110.981 37.816C111.578 36.3867 112.325 35.128 113.221 34.04C114.138 32.9307 115.077 31.992 116.037 31.224C117.018 30.456 117.903 29.88 118.693 29.496C119.503 29.0907 120.079 28.888 120.421 28.888C121.103 28.888 121.445 29.2293 121.445 29.912C121.445 30.232 121.231 30.6053 120.805 31.032C120.378 31.4373 119.834 31.9173 119.173 32.472C118.511 33.0267 117.807 33.656 117.061 34.36C116.314 35.0427 115.61 35.8213 114.949 36.696C114.287 37.5493 113.743 38.5093 113.317 39.576C112.89 40.6213 112.677 41.7733 112.677 43.032C112.677 44.312 113.199 44.952 114.245 44.952C115.205 44.952 116.186 44.7707 117.189 44.408C118.213 44.0453 119.215 43.576 120.197 43C121.199 42.4027 122.159 41.784 123.077 41.144C123.994 40.504 124.826 39.896 125.573 39.32C126.319 38.7227 126.949 38.2427 127.461 37.88C127.973 37.5173 128.335 37.336 128.549 37.336C128.975 37.336 129.189 37.5707 129.189 38.04C129.189 38.4027 128.943 38.8827 128.453 39.48C127.962 40.0773 127.301 40.728 126.469 41.432C125.637 42.136 124.709 42.8507 123.685 43.576C122.661 44.28 121.626 44.9307 120.581 45.528C119.535 46.104 118.533 46.5733 117.573 46.936C116.634 47.2773 115.823 47.448 115.141 47.448ZM142.956 48.696C141.569 48.696 140.289 48.3653 139.116 47.704C137.964 47.0427 136.918 46.1893 135.98 45.144C135.062 44.0987 134.241 42.9787 133.516 41.784C132.812 40.568 132.204 39.4267 131.692 38.36C131.329 40.088 131.041 41.4853 130.828 42.552C130.636 43.6187 130.476 44.4293 130.348 44.984C130.241 45.5387 130.134 45.912 130.028 46.104C129.921 46.296 129.782 46.392 129.612 46.392C129.142 46.392 128.694 46.136 128.268 45.624C127.841 45.112 127.628 44.4507 127.628 43.64C127.628 42.7867 127.777 41.656 128.076 40.248C128.374 38.8187 128.769 37.24 129.26 35.512C129.772 33.7627 130.358 31.96 131.02 30.104C131.681 28.2267 132.364 26.4027 133.068 24.632C133.793 22.84 134.518 21.208 135.244 19.736C135.606 19.0107 135.916 18.5413 136.172 18.328C136.449 18.1147 136.78 18.008 137.164 18.008C137.782 18.008 138.092 18.296 138.092 18.872C138.092 19.0853 138.028 19.32 137.9 19.576C137.793 19.832 137.676 20.12 137.548 20.44C137.164 21.3787 136.737 22.4347 136.268 23.608C135.82 24.7813 135.361 26.008 134.892 27.288C134.444 28.568 134.017 29.8373 133.612 31.096C133.206 32.3547 132.854 33.5173 132.556 34.584C133.473 33.944 134.55 33.304 135.788 32.664C137.025 32.024 138.305 31.448 139.628 30.936C140.95 30.4027 142.198 29.976 143.372 29.656C144.545 29.336 145.516 29.176 146.284 29.176C146.689 29.176 146.998 29.304 147.212 29.56C147.446 29.7947 147.564 30.0613 147.564 30.36C147.564 30.5947 147.489 30.8293 147.34 31.064C147.212 31.2773 146.934 31.4693 146.508 31.64C145.1 32.1307 143.702 32.632 142.316 33.144C140.929 33.6347 139.478 34.168 137.964 34.744C136.47 35.2987 134.838 35.96 133.068 36.728C133.622 37.6667 134.273 38.68 135.02 39.768C135.766 40.8347 136.566 41.848 137.42 42.808C138.273 43.7467 139.148 44.5253 140.044 45.144C140.94 45.7413 141.836 46.04 142.732 46.04C143.905 46.04 145.036 45.7947 146.124 45.304C147.212 44.8133 148.214 44.216 149.132 43.512C150.07 42.808 150.892 42.1253 151.596 41.464C152.3 40.7813 152.854 40.248 153.26 39.864C153.473 39.672 153.665 39.544 153.836 39.48C154.028 39.3947 154.198 39.352 154.348 39.352C154.646 39.352 154.849 39.512 154.956 39.832C155.084 40.1307 154.977 40.4613 154.636 40.824C154.38 41.1227 153.985 41.5813 153.452 42.2C152.918 42.8187 152.268 43.5013 151.5 44.248C150.753 44.9733 149.921 45.6773 149.004 46.36C148.108 47.0427 147.137 47.5973 146.092 48.024C145.068 48.472 144.022 48.696 142.956 48.696ZM157.431 47.704C156.962 47.704 156.599 47.5653 156.343 47.288C156.109 47.032 155.991 46.7333 155.991 46.392C155.991 46.0933 156.119 45.816 156.375 45.56C156.653 45.2827 157.026 45.0373 157.495 44.824C158.349 44.376 159.149 43.928 159.895 43.48C160.663 43.032 161.282 42.552 161.751 42.04C162.221 41.528 162.455 40.984 162.455 40.408C162.455 39.9173 162.295 39.544 161.975 39.288C161.655 39.0107 161.218 38.872 160.663 38.872C160.343 38.872 159.895 38.936 159.319 39.064C158.743 39.1707 158.114 39.2987 157.431 39.448C156.77 39.576 156.119 39.704 155.479 39.832C154.839 39.9387 154.295 39.992 153.847 39.992C153.037 39.992 152.429 39.8 152.023 39.416C151.618 39.0107 151.415 38.4667 151.415 37.784C151.415 37.4427 151.618 36.9307 152.023 36.248C152.429 35.5653 152.962 34.808 153.623 33.976C154.306 33.1227 155.053 32.2693 155.863 31.416C156.674 30.5627 157.495 29.7733 158.327 29.048C159.181 28.3227 159.97 27.736 160.695 27.288C161.442 26.84 162.061 26.616 162.551 26.616C163.042 26.616 163.415 26.776 163.671 27.096C163.927 27.416 164.055 27.8213 164.055 28.312C164.055 28.696 163.991 29.0267 163.863 29.304C163.735 29.56 163.469 29.7627 163.063 29.912C162.679 30.0613 162.082 30.1467 161.271 30.168C160.439 30.8293 159.554 31.5867 158.615 32.44C157.698 33.272 156.855 34.136 156.087 35.032C155.341 35.9067 154.797 36.7493 154.455 37.56C155.159 37.3253 156.013 37.1227 157.015 36.952C158.039 36.76 159.074 36.664 160.119 36.664C161.762 36.664 162.978 37.0373 163.767 37.784C164.578 38.5093 164.983 39.4693 164.983 40.664C164.983 41.432 164.738 42.232 164.247 43.064C163.778 43.8747 163.159 44.632 162.391 45.336C161.623 46.04 160.802 46.6053 159.927 47.032C159.053 47.48 158.221 47.704 157.431 47.704Z" fill="white" fill-opacity="0.8"/>
</svg>
