<svg width="180" height="70" viewBox="0 0 180 70" fill="none" xmlns="http://www.w3.org/2000/svg">
<path d="M12.4688 41.7188C12.5104 41.5104 12.5312 41.4167 12.5312 41.4375C12.2812 41.6875 12.0521 41.8229 11.8438 41.8438H7.78125C6.57292 41.8438 5.42708 41.8125 4.34375 41.75C4.38542 42.625 4.41667 43.5208 4.4375 44.4375C4.45833 45.3542 4.46875 46.3021 4.46875 47.2812C4.46875 47.6354 4.34375 47.9167 4.09375 48.125C3.84375 48.3542 3.57292 48.4688 3.28125 48.4688C2.98958 48.4688 2.6875 48.375 2.375 48.1875C2.08333 48 1.9375 47.6771 1.9375 47.2188C1.9375 44.6354 1.85417 42.0938 1.6875 39.5938C1.52083 37.0729 1.39583 34.5104 1.3125 31.9062C1.41667 31.5312 1.57292 31.25 1.78125 31.0625C1.98958 30.875 2.25 30.7604 2.5625 30.7188C3.16667 30.7188 3.60417 31.0938 3.875 31.8438C3.91667 33.1146 3.95833 34.3646 4 35.5938C4.0625 36.8021 4.13542 38 4.21875 39.1875C5.36458 39.25 6.58333 39.2812 7.875 39.2812H11.9062C12.1146 39.3646 12.3125 39.5208 12.5 39.75C12.5208 39.75 12.5312 39.6875 12.5312 39.5625V39.3125C12.5521 38.8125 12.5625 38.2292 12.5625 37.5625C12.5833 36.875 12.6042 36.1458 12.625 35.375C12.6667 34.5833 12.7083 33.7812 12.75 32.9688C12.8125 32.1354 12.875 31.3438 12.9375 30.5938C13.0417 30.2188 13.2188 29.9375 13.4688 29.75C13.7396 29.5417 14 29.4375 14.25 29.4375C14.5833 29.4375 14.8646 29.5729 15.0938 29.8438C15.3438 30.0938 15.4688 30.4375 15.4688 30.875C15.3438 32.5833 15.25 34.2708 15.1875 35.9375C15.1458 37.6042 15.0938 39.3229 15.0312 41.0938L14.8438 44.5625C14.8229 44.8333 14.8021 45.2188 14.7812 45.7188C14.7604 46.1979 14.6979 46.6771 14.5938 47.1562C14.4896 47.6146 14.3229 48.0208 14.0938 48.375C13.8854 48.7292 13.5625 48.9062 13.125 48.9062C12.8125 48.9062 12.5312 48.7917 12.2812 48.5625C12.0312 48.3542 11.9062 48.0208 11.9062 47.5625C11.9062 47.4167 11.9167 47.3125 11.9375 47.25C12.0208 46.875 12.0833 46.3958 12.125 45.8125C12.1875 45.2083 12.2396 44.625 12.2812 44.0625C12.3438 43.4792 12.3854 42.9688 12.4062 42.5312C12.4271 42.0729 12.4479 41.8021 12.4688 41.7188ZM26.25 43.625L26.0312 43.5938C25.7188 43.5312 25.4271 43.4271 25.1562 43.2812C24.9062 43.1354 24.6562 42.9896 24.4062 42.8438C24.1562 42.6979 23.9167 42.5729 23.6875 42.4688C23.4583 42.3438 23.2292 42.2812 23 42.2812C22.2708 42.3646 21.6354 42.6146 21.0938 43.0312C20.5729 43.4479 20.3125 43.9479 20.3125 44.5312C20.3125 44.6979 20.3542 44.875 20.4375 45.0625C20.5208 45.25 20.6562 45.4896 20.8438 45.7812C21.3854 46.1146 21.9792 46.2812 22.625 46.2812C23.375 46.2812 24.0312 46.2083 24.5938 46.0625L25 45.6562C25.2083 45.3854 25.4896 45.25 25.8438 45.25H26C26.0208 45.0833 26.0417 44.9167 26.0625 44.75C26.0833 44.5833 26.1146 44.4167 26.1562 44.25L26.25 43.625ZM26.7188 47.4062L26 48.0938C25.7292 48.3438 25.2917 48.5208 24.6875 48.625C24.1042 48.75 23.4896 48.8125 22.8438 48.8125C21.9688 48.8125 21.2188 48.7188 20.5938 48.5312C19.9896 48.3438 19.4583 47.9792 19 47.4375C18.25 46.4375 17.875 45.5 17.875 44.625C17.875 44.0417 17.9896 43.4688 18.2188 42.9062C18.4688 42.3229 18.8125 41.8021 19.25 41.3438C19.6875 40.8854 20.2188 40.5104 20.8438 40.2188C21.4896 39.9271 22.2083 39.7812 23 39.7812C23.3333 39.8229 23.6562 39.8958 23.9688 40C24.2812 40.1042 24.5729 40.2188 24.8438 40.3438C25.1146 40.4688 25.3542 40.5938 25.5625 40.7188C25.7917 40.8229 25.9688 40.9062 26.0938 40.9688L25.9062 40.125C25.8021 39.7917 25.6771 39.4688 25.5312 39.1562C25.3854 38.8229 25.2083 38.5 25 38.1875L24.375 37.625C24.2083 37.5833 24.0521 37.5312 23.9062 37.4688C23.7604 37.3854 23.5729 37.3438 23.3438 37.3438C22.7396 37.3854 22.1458 37.4688 21.5625 37.5938C20.9792 37.6979 20.3958 37.8542 19.8125 38.0625C19.75 38.0833 19.6562 38.0938 19.5312 38.0938C19.0938 38.0938 18.75 37.9688 18.5 37.7188C18.2708 37.4688 18.1562 37.1979 18.1562 36.9062C18.1562 36.6562 18.2188 36.4375 18.3438 36.25C18.4688 36.0417 18.7083 35.8333 19.0625 35.625C19.6042 35.4583 20.1979 35.2812 20.8438 35.0938C21.5104 34.8854 22.1771 34.7812 22.8438 34.7812C23.9896 34.7812 24.9375 35.0104 25.6875 35.4688C26.4583 35.9271 27.0625 36.5312 27.5 37.2812C27.9583 38.0104 28.2708 38.8229 28.4375 39.7188C28.625 40.6146 28.7188 41.5 28.7188 42.375C28.7188 42.8958 28.6979 43.4583 28.6562 44.0625C28.6354 44.6458 28.5625 45.1979 28.4375 45.7188C28.3333 46.2188 28.1771 46.6354 27.9688 46.9688C27.7604 47.3021 27.4792 47.4688 27.125 47.4688C27.0417 47.4688 26.9583 47.4688 26.875 47.4688C26.7917 47.4479 26.7396 47.4271 26.7188 47.4062ZM33.4375 30.5938C33.5417 30.2396 33.6979 29.9583 33.9062 29.75C34.1354 29.5417 34.3958 29.4375 34.6875 29.4375C35.3125 29.4375 35.75 29.8125 36 30.5625C36 32.125 35.9896 33.6042 35.9688 35C35.9479 36.375 35.9375 37.6771 35.9375 38.9062C35.9375 40.9896 36.0625 43.25 36.3125 45.6875C36.5 45.75 36.7292 45.8229 37 45.9062C37.2917 45.9688 37.5625 46.0729 37.8125 46.2188C38.0833 46.3438 38.3021 46.5104 38.4688 46.7188C38.6562 46.9271 38.75 47.1875 38.75 47.5C38.75 47.8125 38.625 48.0833 38.375 48.3125C38.1458 48.5625 37.8646 48.6875 37.5312 48.6875C37.3021 48.6875 37.0521 48.625 36.7812 48.5C36.0521 48.1458 35.4896 47.9062 35.0938 47.7812C34.7188 47.6354 34.4271 47.4792 34.2188 47.3125C34.0312 47.125 33.9062 46.8438 33.8438 46.4688C33.7812 46.0729 33.7188 45.4479 33.6562 44.5938C33.5104 43.8229 33.4375 42.9792 33.4375 42.0625C33.4375 41.1458 33.4375 40.2604 33.4375 39.4062V30.5938ZM42.4688 39.4062C42.0104 39.3646 41.6875 39.2188 41.5 38.9688C41.3125 38.6979 41.2188 38.4062 41.2188 38.0938C41.2188 37.8021 41.3229 37.5208 41.5312 37.25C41.7604 36.9792 42.0521 36.8438 42.4062 36.8438C43.0938 36.8438 43.8125 36.8646 44.5625 36.9062C45.3125 36.9271 46.0625 36.9583 46.8125 37C47.5625 37.0208 48.3021 37.0417 49.0312 37.0625C49.7604 37.0833 50.4479 37.0938 51.0938 37.0938C51.4688 37.2188 51.7396 37.4062 51.9062 37.6562C52.0938 37.8854 52.1875 38.1354 52.1875 38.4062C52.1875 38.6979 52.0833 38.9583 51.875 39.1875C51.6667 39.4167 51.3854 39.5729 51.0312 39.6562H50.8438C50.3646 39.6146 50.0312 39.4688 49.8438 39.2188C49.6562 38.9479 49.5625 38.6562 49.5625 38.3438C49.5625 38.0521 49.6667 37.7708 49.875 37.5C50.1042 37.2292 50.4479 37.0938 50.9062 37.0938H51.0938C51.4688 37.2188 51.7396 37.4062 51.9062 37.6562C52.0938 37.8854 52.1875 38.1354 52.1875 38.4062C52.1875 38.6979 52.0833 38.9583 51.875 39.1875C51.6667 39.4167 51.3854 39.5729 51.0312 39.6562C50.4062 39.6562 49.7188 39.6458 48.9688 39.625C48.2396 39.6042 47.4896 39.5833 46.7188 39.5625C45.9688 39.5208 45.2292 39.4896 44.5 39.4688C43.7708 39.4271 43.0938 39.4062 42.4688 39.4062ZM48.0938 31.5312C47.9062 31.6979 47.7292 31.8646 47.5625 32.0312C47.4167 32.1771 47.3021 32.4583 47.2188 32.875C47.1354 33.3542 47.0729 33.8125 47.0312 34.25C46.9896 34.6875 46.9688 35.1354 46.9688 35.5938C46.9688 36.5312 47.0312 37.4688 47.1562 38.4062C47.2812 39.3229 47.4167 40.25 47.5625 41.1875C47.7292 42.1042 47.875 43.0417 48 44C48.125 44.9375 48.1875 45.8854 48.1875 46.8438C48.1875 47.1979 48.1771 47.5521 48.1562 47.9062C48.1354 48.2396 48.0729 48.5312 47.9688 48.7812C47.8646 49.0521 47.7083 49.2708 47.5 49.4375C47.2917 49.6042 47.0104 49.6875 46.6562 49.6875C46.3438 49.6458 46.0833 49.5208 45.875 49.3125C45.6667 49.1042 45.5521 48.8125 45.5312 48.4375V48.3125C45.5938 47.9375 45.7396 47.6458 45.9688 47.4375C46.2188 47.2083 46.4896 47.0938 46.7812 47.0938C47.0312 47.0938 47.2708 47.1875 47.5 47.375C47.7292 47.5417 47.9167 47.8333 48.0625 48.25V48.5938C47.7708 48.6354 47.5208 48.6562 47.3125 48.6562C47.125 48.6771 46.9375 48.6875 46.75 48.6875C46.5833 48.6875 46.3958 48.6875 46.1875 48.6875C46 48.6875 45.7708 48.6979 45.5 48.7188C45.5625 48.1354 45.5938 47.5521 45.5938 46.9688C45.5938 45.9062 45.5104 44.8854 45.3438 43.9062C45.1771 42.9271 45.0208 41.9479 44.875 40.9688C44.75 40.0938 44.6458 39.2396 44.5625 38.4062C44.4792 37.5521 44.4375 36.6875 44.4375 35.8125C44.4375 35.2917 44.4583 34.6354 44.5 33.8438C44.5417 33.0312 44.6875 32.25 44.9375 31.5C45.2083 30.75 45.6354 30.1146 46.2188 29.5938C46.8021 29.0521 47.625 28.7812 48.6875 28.7812C49.1667 28.7812 49.5417 28.8958 49.8125 29.125C50.0833 29.3542 50.2188 29.6146 50.2188 29.9062C50.2188 30.4062 49.9583 30.8542 49.4375 31.25C49.1875 31.3333 48.9479 31.3958 48.7188 31.4375C48.5104 31.4583 48.3021 31.4896 48.0938 31.5312Z" fill="white" fill-opacity="0.8"/>
<path d="M63.9167 33.25L72.5637 41.5L70.1618 53C69.9216 54.5 70.402 56 71.603 56.75C72.0833 57.25 72.8039 57.5 73.5245 57.5C74.0049 57.5 74.4853 57.5 74.9657 57.25C74.9657 57.25 75.2059 57.25 75.2059 57L85.0539 51.25L94.902 57C94.902 57 95.1422 57 95.1422 57.25C96.3432 57.75 97.7843 57.75 98.7451 57C99.9461 56.25 100.426 54.75 100.186 53.25L97.7843 41.75C98.7451 41 100.186 39.5 101.627 38L106.191 33.75L106.431 33.5C107.392 32.5 107.632 31 107.152 29.75C106.672 28.5 105.711 27.5 104.27 27.25H104.029L92.7402 26L88.1765 15.25C88.1765 15.25 88.1765 15 87.9363 15C87.6961 13.25 86.4951 12.5 85.2941 12.5C84.0932 12.5 82.8922 13.25 82.1716 14.5C82.1716 14.5 82.1716 14.75 81.9314 14.75L77.3677 25.5L66.0784 26.75H65.8382C64.6373 27 63.4363 28 62.9559 29.25C62.7157 30.75 62.9559 32.25 63.9167 33.25ZM85.2941 45.75V19.5L89.3775 29C89.6177 29.75 90.5784 30.25 91.299 30.5L101.387 31.75L93.9412 38.75C93.2206 39.25 92.9804 40.25 93.2206 41.25C93.2206 41.75 94.4216 46.75 95.1422 51.5L86.4951 46.25C86.0147 45.75 85.7745 45.75 85.2941 45.75Z" fill="white" fill-opacity="0.8"/>
<path d="M126.211 30.375C126.399 30.7292 126.493 31.0625 126.493 31.375C126.493 31.6667 126.368 31.9271 126.118 32.1562C125.889 32.3646 125.586 32.4688 125.211 32.4688C124.961 32.4688 124.732 32.4167 124.524 32.3125C123.711 31.625 122.826 31.2812 121.868 31.2812C120.784 31.2812 119.868 31.7188 119.118 32.5938C119.097 32.6771 119.066 32.7708 119.024 32.875C119.003 32.9792 118.972 33.0729 118.93 33.1562C118.93 34.0312 119.159 34.7604 119.618 35.3438C120.076 35.9062 120.649 36.4167 121.336 36.875C122.024 37.3125 122.764 37.7292 123.555 38.125C124.347 38.5208 125.086 38.9792 125.774 39.5C126.461 40.0208 127.034 40.6562 127.493 41.4062C127.951 42.1354 128.18 43.0521 128.18 44.1562C128.18 45.0729 127.961 45.8438 127.524 46.4688C127.107 47.0938 126.576 47.6042 125.93 48C125.284 48.375 124.597 48.6458 123.868 48.8125C123.139 49 122.461 49.0938 121.836 49.0938C120.753 49.0938 119.691 48.8646 118.649 48.4062C117.607 47.9688 116.701 47.3021 115.93 46.4062C115.764 46.1771 115.597 45.8854 115.43 45.5312C115.264 45.1771 115.18 44.8333 115.18 44.5C115.18 44.1458 115.284 43.8438 115.493 43.5938C115.722 43.3229 116.045 43.1875 116.461 43.1875C116.857 43.1875 117.17 43.3646 117.399 43.7188C117.649 44.0521 117.868 44.4688 118.055 44.9688C118.597 45.5104 119.18 45.9167 119.805 46.1875C120.43 46.4375 121.076 46.5625 121.743 46.5625C121.993 46.5625 122.305 46.5417 122.68 46.5C123.055 46.4375 123.42 46.3438 123.774 46.2188C124.149 46.0938 124.482 45.9375 124.774 45.75C125.086 45.5417 125.305 45.2917 125.43 45C125.472 44.8333 125.503 44.6979 125.524 44.5938C125.566 44.4688 125.607 44.3542 125.649 44.25C125.524 43.5417 125.264 42.9271 124.868 42.4062C124.493 41.8854 124.045 41.4271 123.524 41.0312C123.003 40.6354 122.451 40.2917 121.868 40C121.305 39.7083 120.784 39.4271 120.305 39.1562C119.451 38.6771 118.68 38.1042 117.993 37.4375C117.305 36.75 116.784 35.7604 116.43 34.4688C116.326 34.0938 116.274 33.7396 116.274 33.4062C116.274 32.6979 116.451 32.0521 116.805 31.4688C117.159 30.8854 117.618 30.3958 118.18 30C118.743 29.5833 119.378 29.2604 120.086 29.0312C120.795 28.8021 121.514 28.6875 122.243 28.6875C123.097 28.6875 123.836 28.8438 124.461 29.1562C125.086 29.4479 125.67 29.8542 126.211 30.375ZM139.618 45.2188C139.889 44.9062 140.118 44.7083 140.305 44.625C140.514 44.5208 140.732 44.4688 140.961 44.4688C141.316 44.4688 141.576 44.6146 141.743 44.9062C141.93 45.1979 142.024 45.5312 142.024 45.9062C141.92 46.3021 141.743 46.6354 141.493 46.9062C141.264 47.1771 140.982 47.3958 140.649 47.5625C140.316 47.7292 139.951 47.8542 139.555 47.9375C139.159 48 138.764 48.0312 138.368 48.0312C137.951 48.0104 137.534 47.9479 137.118 47.8438C136.722 47.7396 136.347 47.6042 135.993 47.4375C135.639 47.25 135.326 47.0417 135.055 46.8125C134.805 46.5625 134.628 46.2812 134.524 45.9688C134.045 44.7812 133.722 43.5625 133.555 42.3125C133.389 41.0417 133.305 39.8125 133.305 38.625V37.8438L131.368 38.125C130.951 38.0833 130.628 37.9375 130.399 37.6875C130.191 37.4375 130.086 37.1354 130.086 36.7812C130.086 36.5521 130.17 36.3229 130.336 36.0938C130.503 35.8438 130.753 35.6667 131.086 35.5625L133.368 35.2812C133.368 34.5521 133.389 33.8333 133.43 33.125C133.493 32.3958 133.534 31.6667 133.555 30.9375C133.784 30.2083 134.201 29.8021 134.805 29.7188C135.409 29.7188 135.847 30.1042 136.118 30.875C136.076 31.7083 136.014 32.75 135.93 34L135.868 34.875C136.409 34.7917 136.972 34.7292 137.555 34.6875C138.139 34.6458 138.753 34.625 139.399 34.625C140.149 34.8958 140.524 35.3125 140.524 35.875C140.482 36.1667 140.368 36.4375 140.18 36.6875C139.993 36.9167 139.711 37.0729 139.336 37.1562C138.107 37.1562 136.93 37.25 135.805 37.4375V38.25C135.805 38.9167 135.826 39.5833 135.868 40.25C135.909 40.8958 135.961 41.5208 136.024 42.125C136.107 42.7083 136.211 43.25 136.336 43.75C136.461 44.2292 136.607 44.625 136.774 44.9375C137.045 45.0625 137.357 45.1875 137.711 45.3125C138.066 45.4167 138.409 45.4688 138.743 45.4688C138.93 45.4688 139.18 45.4167 139.493 45.3125L139.618 45.2188ZM152.493 43.625L152.274 43.5938C151.961 43.5312 151.67 43.4271 151.399 43.2812C151.149 43.1354 150.899 42.9896 150.649 42.8438C150.399 42.6979 150.159 42.5729 149.93 42.4688C149.701 42.3438 149.472 42.2812 149.243 42.2812C148.514 42.3646 147.878 42.6146 147.336 43.0312C146.816 43.4479 146.555 43.9479 146.555 44.5312C146.555 44.6979 146.597 44.875 146.68 45.0625C146.764 45.25 146.899 45.4896 147.086 45.7812C147.628 46.1146 148.222 46.2812 148.868 46.2812C149.618 46.2812 150.274 46.2083 150.836 46.0625L151.243 45.6562C151.451 45.3854 151.732 45.25 152.086 45.25H152.243C152.264 45.0833 152.284 44.9167 152.305 44.75C152.326 44.5833 152.357 44.4167 152.399 44.25L152.493 43.625ZM152.961 47.4062L152.243 48.0938C151.972 48.3438 151.534 48.5208 150.93 48.625C150.347 48.75 149.732 48.8125 149.086 48.8125C148.211 48.8125 147.461 48.7188 146.836 48.5312C146.232 48.3438 145.701 47.9792 145.243 47.4375C144.493 46.4375 144.118 45.5 144.118 44.625C144.118 44.0417 144.232 43.4688 144.461 42.9062C144.711 42.3229 145.055 41.8021 145.493 41.3438C145.93 40.8854 146.461 40.5104 147.086 40.2188C147.732 39.9271 148.451 39.7812 149.243 39.7812C149.576 39.8229 149.899 39.8958 150.211 40C150.524 40.1042 150.816 40.2188 151.086 40.3438C151.357 40.4688 151.597 40.5938 151.805 40.7188C152.034 40.8229 152.211 40.9062 152.336 40.9688L152.149 40.125C152.045 39.7917 151.92 39.4688 151.774 39.1562C151.628 38.8229 151.451 38.5 151.243 38.1875L150.618 37.625C150.451 37.5833 150.295 37.5312 150.149 37.4688C150.003 37.3854 149.816 37.3438 149.586 37.3438C148.982 37.3854 148.389 37.4688 147.805 37.5938C147.222 37.6979 146.639 37.8542 146.055 38.0625C145.993 38.0833 145.899 38.0938 145.774 38.0938C145.336 38.0938 144.993 37.9688 144.743 37.7188C144.514 37.4688 144.399 37.1979 144.399 36.9062C144.399 36.6562 144.461 36.4375 144.586 36.25C144.711 36.0417 144.951 35.8333 145.305 35.625C145.847 35.4583 146.441 35.2812 147.086 35.0938C147.753 34.8854 148.42 34.7812 149.086 34.7812C150.232 34.7812 151.18 35.0104 151.93 35.4688C152.701 35.9271 153.305 36.5312 153.743 37.2812C154.201 38.0104 154.514 38.8229 154.68 39.7188C154.868 40.6146 154.961 41.5 154.961 42.375C154.961 42.8958 154.941 43.4583 154.899 44.0625C154.878 44.6458 154.805 45.1979 154.68 45.7188C154.576 46.2188 154.42 46.6354 154.211 46.9688C154.003 47.3021 153.722 47.4688 153.368 47.4688C153.284 47.4688 153.201 47.4688 153.118 47.4688C153.034 47.4479 152.982 47.4271 152.961 47.4062ZM158.774 47.0938C158.774 46.5312 158.784 45.9479 158.805 45.3438C158.847 44.7396 158.92 44.1667 159.024 43.625L159.243 41.3125L159.524 39.625C159.586 39.3542 159.618 39.1042 159.618 38.875C159.618 38.625 159.566 38.3646 159.461 38.0938C159.378 37.8229 159.139 37.6875 158.743 37.6875C158.576 37.6875 158.409 37.6458 158.243 37.5625C158.097 37.4583 157.961 37.3438 157.836 37.2188C157.711 37.0729 157.607 36.9271 157.524 36.7812C157.461 36.6354 157.43 36.5 157.43 36.375C157.43 36.125 157.555 35.8542 157.805 35.5625C158.055 35.2708 158.399 35.125 158.836 35.125C159.92 35.2292 160.711 35.5312 161.211 36.0312C161.711 36.5312 161.961 37.1458 161.961 37.875C162.586 37.4375 163.316 37.1146 164.149 36.9062C164.982 36.6771 165.972 36.5208 167.118 36.4375C167.576 36.4375 167.93 36.5625 168.18 36.8125C168.43 37.0417 168.555 37.3333 168.555 37.6875C168.555 38 168.451 38.2812 168.243 38.5312C168.034 38.7604 167.753 38.9062 167.399 38.9688C166.441 39.0312 165.628 39.1354 164.961 39.2812C164.295 39.4271 163.732 39.6667 163.274 40C162.816 40.3125 162.461 40.7396 162.211 41.2812C161.961 41.8229 161.774 42.5208 161.649 43.375L161.555 43.8438V45.125C161.534 45.4375 161.514 45.7604 161.493 46.0938C161.493 46.4062 161.472 46.7292 161.43 47.0625L161.336 47.625L161.149 48.125C160.816 48.5208 160.43 48.7188 159.993 48.7188C159.243 48.7188 158.836 48.2812 158.774 47.4062V47.0938Z" fill="white" fill-opacity="0.8"/>
</svg>
