<?xml version="1.0" encoding="iso-8859-1"?>
<!-- Uploaded to: SVG Repo, www.svgrepo.com, Generator: SVG Repo Mixer Tools -->
<svg fill="#ffffff" height="800px" width="800px" version="1.1" id="Capa_1" xmlns="http://www.w3.org/2000/svg" xmlns:xlink="http://www.w3.org/1999/xlink" 
	 viewBox="0 0 490 490" xml:space="preserve">
<g id="line_35_">
	<path d="M174.203,490V281.061H67.015V490H174.203z M97.64,311.686h45.938v147.689H97.64V311.686z"/>
	<path d="M204.828,490h107.188V210.623H204.828V490z M235.453,241.248h45.937v218.127h-45.937V241.248z"/>
	<path d="M449.828,136.312H342.64V490h107.188V136.312z M419.203,459.375h-45.938V166.937h45.938V459.375z"/>
	<path d="M344.799,0l-89.716,49.046l29.982,19.432C190.572,185.894,41.704,214.344,40.172,214.635l5.451,30.135
		c6.845-1.24,163.783-30.962,265.304-159.526l30.855,19.983L344.799,0z"/>
</g>
</svg>