<?xml version="1.0" encoding="iso-8859-1"?>
<!-- Uploaded to: SVG Repo, www.svgrepo.com, Generator: SVG Repo Mixer Tools -->
<svg fill="#ffffff" height="800px" width="800px" version="1.1" id="Layer_1" xmlns="http://www.w3.org/2000/svg" xmlns:xlink="http://www.w3.org/1999/xlink" 
	 viewBox="0 0 392.598 392.598" xml:space="preserve">
<g>
	<g>
		<path d="M216.756,0c-87.467,0-160,70.659-162.651,157.737L13.766,266.02c-2.133,4.655,0.388,14.739,10.214,14.739h29.996v33.81
			c0,6.012,4.849,10.925,10.925,10.925h34.844v56.178c0,6.012,4.848,10.925,10.925,10.925h166.594
			c6.012,0,10.925-5.107,10.925-11.119c0-38.335,15.774-75.442,44.412-104.404c30.19-30.707,46.933-71.24,46.933-114.295
			C379.471,72.986,306.485,0,216.756,0z M317.023,261.689c-30.061,30.448-47.709,68.784-50.295,109.059H121.532V314.57
			c0-6.012-4.848-10.925-10.925-10.925H75.762v-33.745c0-6.012-4.849-10.925-10.925-10.925H39.625c0,0,36.137-97.681,36.137-98.909
			C77.184,83.846,140.344,21.85,216.627,21.85c77.705,0,140.929,63.224,140.929,140.929
			C357.685,200.081,343.205,235.119,317.023,261.689z"/>
	</g>
</g>
<g>
	<g>
		<path d="M321.16,141.382l-23.855-9.115c-0.646-1.552-1.228-3.168-1.939-4.719l10.343-23.337c1.875-4.073,0.905-8.986-2.263-12.154
			l-16.032-16.032c-3.168-3.168-7.952-4.073-12.154-2.263l-23.402,10.343c-1.552-0.711-3.168-1.422-4.719-1.939l-9.18-23.855
			c-1.616-4.202-5.624-6.982-10.214-6.982h-22.82c-4.461,0-8.598,2.78-10.214,6.982l-9.18,23.79
			c-1.552,0.646-3.168,1.228-4.719,1.939l-23.337-10.343c-4.202-1.875-8.986-0.905-12.154,2.263l-16.097,16.097
			c-3.168,3.168-4.073,8.016-2.263,12.154l10.343,23.337c-0.711,1.552-1.422,3.168-1.939,4.719l-23.725,9.18
			c-4.267,1.616-6.982,5.624-6.982,10.214v22.82c0,4.461,2.78,8.598,6.982,10.214l23.79,9.18c0.646,1.552,1.228,3.168,1.939,4.719
			l-10.343,23.273c-1.875,4.073-0.905,8.986,2.263,12.154l16.097,16.097c3.168,3.168,7.952,4.073,12.154,2.263l23.337-10.343
			c1.552,0.711,3.168,1.422,4.719,1.939l9.18,23.79c1.616,4.202,5.624,6.982,10.214,6.982h22.82c4.461,0,8.598-2.78,10.214-6.982
			l9.18-23.79c1.552-0.646,3.168-1.228,4.719-1.939l23.337,10.343c4.073,1.875,8.986,0.905,12.154-2.263l16.097-16.097
			c3.168-3.168,4.073-8.016,2.263-12.154l-10.343-23.337c0.711-1.552,1.422-3.168,1.939-4.719l23.79-9.18
			c4.202-1.616,6.982-5.624,6.982-10.214v-22.82C328.077,147.135,325.298,142.998,321.16,141.382z M306.292,166.917l-21.527,8.275
			c-3.103,1.228-5.495,3.814-6.465,6.982c-1.164,3.62-2.715,7.37-4.59,10.99c-1.552,2.909-1.681,6.465-0.323,9.503l9.374,21.075
			l-5.495,5.495l-21.075-9.374c-3.038-1.422-6.594-1.228-9.503,0.323c-3.62,1.939-7.37,3.491-10.99,4.59
			c-3.168,1.034-5.818,3.426-6.982,6.465l-8.275,21.527h-7.822l-8.21-21.592c-1.164-3.103-3.814-5.495-6.982-6.465
			c-3.62-1.164-7.37-2.715-10.99-4.59c-2.909-1.552-6.465-1.681-9.503-0.323l-21.075,9.438l-5.495-5.495l9.374-21.075
			c1.422-3.103,1.228-6.594-0.323-9.503c-1.939-3.62-3.491-7.37-4.59-10.99c-1.034-3.168-3.426-5.818-6.465-6.982l-21.721-8.339
			v-7.822l21.527-8.275c3.103-1.228,5.495-3.814,6.465-6.982c1.164-3.62,2.715-7.37,4.59-10.99c1.552-2.909,1.681-6.465,0.323-9.503
			l-9.374-21.075l5.495-5.495l21.075,9.438c3.103,1.422,6.594,1.228,9.503-0.323c3.62-1.939,7.37-3.491,10.99-4.59
			c3.168-1.034,5.689-3.426,6.982-6.465l8.275-21.527h7.822l8.275,21.527c1.228,3.103,3.814,5.495,6.982,6.465
			c3.685,1.164,7.37,2.715,10.99,4.59c2.909,1.552,6.465,1.681,9.503,0.323l21.075-9.438l5.495,5.495l-9.374,21.075
			c-1.422,3.103-1.228,6.594,0.323,9.503c1.939,3.62,3.491,7.37,4.59,10.99c1.034,3.168,3.426,5.818,6.465,6.982l21.527,8.275v7.822
			h0.129V166.917z"/>
	</g>
</g>
<g>
	<g>
		<path d="M216.433,121.212c-23.014,0-41.826,18.747-41.826,41.826c0,23.079,18.747,41.826,41.826,41.826
			s41.826-18.747,41.826-41.826S239.512,121.212,216.433,121.212z M216.433,182.949c-11.055,0-20.04-8.986-20.04-20.04
			c0-11.055,8.986-20.04,20.04-20.04c11.055,0,20.04,8.986,20.04,20.04C236.473,174.028,227.487,182.949,216.433,182.949z"/>
	</g>
</g>
</svg>