<?xml version="1.0" encoding="iso-8859-1"?>
<!-- Uploaded to: SVG Repo, www.svgrepo.com, Generator: SVG Repo Mixer Tools -->
<!DOCTYPE svg PUBLIC "-//W3C//DTD SVG 1.1//EN" "http://www.w3.org/Graphics/SVG/1.1/DTD/svg11.dtd">
<svg fill="#ffffff" height="800px" width="800px" version="1.1" id="Capa_1" xmlns="http://www.w3.org/2000/svg" xmlns:xlink="http://www.w3.org/1999/xlink" 
	 viewBox="0 0 454.611 454.611" xml:space="preserve">
<g>
	<circle cx="95.246" cy="37.417" r="37.417"/>
	<path d="M248.123,146.142c-5.259-8.471-16.391-11.075-24.861-5.815l-36.565,22.703l-0.169-33.758
		c-0.118-23.44-19.284-42.51-42.724-42.51h-17.762c-3.36,8.714-19.755,51.234-23.143,60.02l5.393-25.456
		c0.375-1.766,0.103-3.609-0.767-5.191l-7.34-13.35l6.513-11.845c0.452-0.822,0.436-1.822-0.041-2.63
		c-0.478-0.808-1.372-1.55-2.31-1.55H86.452c-0.938,0-1.781,0.742-2.259,1.55c-0.478,0.808-0.493,1.808-0.041,2.63l6.526,11.869
		l-7.354,13.374c-0.853,1.552-1.132,3.356-0.787,5.094l4.744,25.503c-2.541-6.589-20.08-53.811-22.474-60.021H46.688
		c-23.44,0-42.606,19.07-42.724,42.51L3.298,261.907c-0.05,9.971,7.992,18.095,17.963,18.145c0.031,0,0.061,0,0.093,0
		c9.928,0,18.002-8.024,18.052-17.963l0.666-132.636c0.01-1.976,1.616-3.57,3.591-3.564c1.975,0.005,3.572,1.608,3.572,3.582
		l0.009,303.475c0,11.965,9.699,21.665,21.665,21.665s21.664-9.699,21.664-21.665V264.455c0-2.583,2.094-4.677,4.677-4.677
		s4.677,2.094,4.677,4.677v168.491c0,11.965,9.699,21.665,21.665,21.665c11.965,0,21.665-9.699,21.665-21.665l-0.385-303.566
		c-0.003-2.084,1.684-3.776,3.768-3.779c2.084-0.003,3.777,1.683,3.78,3.767c0,0.028,0,0.056,0,0.085l0.332,66.026
		c0.071,14.198,15.695,22.626,27.577,15.247l63.98-39.724C250.779,165.743,253.383,154.612,248.123,146.142z"/>
	<path d="M410.229,206.805c-21.78,0-39.5,17.72-39.5,39.5s17.72,39.5,39.5,39.5s39.5-17.72,39.5-39.5
		S432.009,206.805,410.229,206.805z M410.229,255.805c-5.238,0-9.5-4.262-9.5-9.5c0-5.238,4.262-9.5,9.5-9.5
		c5.238,0,9.5,4.262,9.5,9.5C419.729,251.544,415.467,255.805,410.229,255.805z"/>
	<path d="M260.125,98.863c2.929,2.929,6.768,4.394,10.606,4.394c3.839,0,7.678-1.464,10.607-4.394l13.897-13.897l13.897,13.897
		c2.929,2.929,6.768,4.394,10.607,4.394c3.839,0,7.678-1.464,10.606-4.394c5.858-5.858,5.858-15.355,0-21.213l-13.897-13.897
		l13.897-13.897c5.858-5.858,5.858-15.355,0-21.213c-5.857-5.858-15.355-5.858-21.213,0L295.236,42.54l-13.897-13.897
		c-5.857-5.858-15.355-5.858-21.213,0c-5.858,5.858-5.858,15.355,0,21.213l13.897,13.897L260.125,77.65
		C254.268,83.508,254.268,93.005,260.125,98.863z"/>
	<path d="M270.8,301.315c-5.857-5.858-15.356-5.858-21.213,0l-13.897,13.897l-13.897-13.897c-5.857-5.858-15.355-5.858-21.213,0
		c-5.858,5.858-5.858,15.355,0,21.213l13.897,13.897l-13.897,13.897c-5.858,5.858-5.858,15.355,0,21.213
		c2.929,2.929,6.768,4.393,10.606,4.393c3.839,0,7.678-1.464,10.606-4.393l13.897-13.897l13.897,13.897
		c2.929,2.929,6.768,4.393,10.606,4.393c3.839,0,7.678-1.464,10.607-4.393c5.858-5.858,5.858-15.355,0-21.213l-13.897-13.897
		l13.897-13.897C276.658,316.67,276.658,307.173,270.8,301.315z"/>
	<path d="M388.539,141.401c-5.858,5.858-5.858,15.355,0,21.213c2.929,2.929,6.767,4.394,10.606,4.394s7.678-1.464,10.606-4.394
		l37.167-37.167c5.858-5.858,5.858-15.355,0-21.213l-37.167-37.167c-5.857-5.858-15.355-5.858-21.213,0
		c-5.858,5.858-5.858,15.355,0,21.213l11.637,11.637c-75.985,1.882-115.85,40.494-135.987,72.949
		c-21.986,35.433-25.272,70.657-25.4,72.139c-0.719,8.253,5.389,15.526,13.642,16.245c0.443,0.038,0.883,0.058,1.319,0.058
		c7.695,0,14.246-5.889,14.926-13.699c0.025-0.291,2.752-29.507,21.005-58.925c23.302-37.556,60.406-57.303,110.332-58.754
		L388.539,141.401z"/>
</g>
</svg>